<?xml version="1.0" encoding="UTF-8"?>
<svg id="Layer_2" data-name="Layer 2" xmlns="http://www.w3.org/2000/svg" viewBox="0 0 2659.2451 2659.2451">
  <defs>
    <style>
      .cls-1 {
        fill: #6cc0ea;
      }

      .cls-1, .cls-2, .cls-3 {
        stroke-width: 0px;
      }

      .cls-2 {
        fill: #fff;
      }

      .cls-3 {
        fill: #ffc043;
      }
    </style>
  </defs>
  <g id="Layer_2-2" data-name="Layer 2">
    <g>
      <g>
        <g id="_Radial_Repeat_" data-name="&amp;lt;Radial Repeat&amp;gt;">
          <polygon class="cls-1" points="1322.5854 1300.8402 611.5446 887.2064 454.9553 1220.4255 1322.5854 1300.8402"/>
        </g>
        <g id="_Radial_Repeat_-2" data-name="&amp;lt;Radial Repeat&amp;gt;">
          <polygon class="cls-1" points="1335.4988 1311.4325 545.1527 1539.5223 677.7887 1882.9795 1335.4988 1311.4325"/>
        </g>
        <g id="_Radial_Repeat_-3" data-name="&amp;lt;Radial Repeat&amp;gt;">
          <polygon class="cls-1" points="1352.078 1309.4187 970.7614 2038.3011 1310.6704 2179.7829 1352.078 1309.4187"/>
        </g>
        <g id="_Radial_Repeat_-4" data-name="&amp;lt;Radial Repeat&amp;gt;">
          <polygon class="cls-1" points="1362.0802 1296.0434 1625.3991 2075.3605 1962.5598 1927.4488 1362.0802 1296.0434"/>
        </g>
        <g id="_Radial_Repeat_-5" data-name="&amp;lt;Radial Repeat&amp;gt;">
          <polygon class="cls-1" points="1359.3241 1279.571 2104.5803 1627.8024 2230.6697 1281.8882 1359.3241 1279.571"/>
        </g>
        <g id="_Radial_Repeat_-6" data-name="&amp;lt;Radial Repeat&amp;gt;">
          <polygon class="cls-1" points="1345.5139 1270.1794 2112.2326 972.1617 1949.3432 641.9766 1345.5139 1270.1794"/>
        </g>
        <g id="_Radial_Repeat_-7" data-name="&amp;lt;Radial Repeat&amp;gt;">
          <polygon class="cls-1" points="1329.1818 1273.6708 1643.6267 513.5416 1292.4038 403.0986 1329.1818 1273.6708"/>
        </g>
        <g id="_Radial_Repeat_-8" data-name="&amp;lt;Radial Repeat&amp;gt;">
          <polygon class="cls-1" points="1320.4193 1287.8889 988.303 535.3128 665.7584 712.8518 1320.4193 1287.8889"/>
        </g>
      </g>
      <g>
        <g id="_Radial_Repeat_-9" data-name="&amp;lt;Radial Repeat&amp;gt;">
          <polygon class="cls-3" points="1265.9068 1816.7799 840.4581 1504.4832 525.0957 1612.0067 1265.9068 1816.7799"/>
          <polygon class="cls-3" points="1213.9813 513.1411 788.5326 200.8445 473.1702 308.3679 1213.9813 513.1411"/>
        </g>
        <g id="_Radial_Repeat_-10" data-name="&amp;lt;Radial Repeat&amp;gt;">
          <polygon class="cls-3" points="1597.5563 1741.44 1071.2222 1780.2746 901.2496 2066.8475 1597.5563 1741.44"/>
          <polygon class="cls-3" points="711.4262 783.8682 185.0921 822.7027 15.1195 1109.2757 711.4262 783.8682"/>
        </g>
        <g id="_Radial_Repeat_-11" data-name="&amp;lt;Radial Repeat&amp;gt;">
          <polygon class="cls-3" points="1800.8148 1468.7628 1425.8081 1840.1195 1482.6742 2168.4197 1800.8148 1468.7628"/>
          <polygon class="cls-3" points="505.1029 1316.1149 130.0963 1687.4717 186.9624 2015.7718 505.1029 1316.1149"/>
        </g>
        <g id="_Radial_Repeat_-12" data-name="&amp;lt;Radial Repeat&amp;gt;">
          <polygon class="cls-3" points="1778.284 1129.4105 1734.3037 1655.3397 1990.7589 1868.0495 1778.284 1129.4105"/>
          <polygon class="cls-3" points="693.8802 1854.8336 649.8998 2380.7628 906.355 2593.4726 693.8802 1854.8336"/>
        </g>
        <g id="_Radial_Repeat_-13" data-name="&amp;lt;Radial Repeat&amp;gt;">
          <polygon class="cls-3" points="1540.7601 885.9978 1848.8809 1314.4805 2182.0349 1309.672 1540.7601 885.9978"/>
          <polygon class="cls-3" points="1187.2976 2141.8779 1495.4184 2570.3605 1828.5724 2565.552 1187.2976 2141.8779"/>
        </g>
        <g id="_Radial_Repeat_-14" data-name="&amp;lt;Radial Repeat&amp;gt;">
          <polygon class="cls-3" points="1202.0619 855.1644 1714.636 980.8767 1964.8454 760.8541 1202.0619 855.1644"/>
          <polygon class="cls-3" points="1748.9158 2039.6986 2261.4899 2165.411 2511.6993 1945.3883 1748.9158 2039.6986"/>
        </g>
        <g id="_Radial_Repeat_-15" data-name="&amp;lt;Radial Repeat&amp;gt;">
          <polygon class="cls-3" points="924.4886 1051.6862 1395.8967 814.3884 1443.2641 484.5838 924.4886 1051.6862"/>
          <polygon class="cls-3" points="2109.613 1597.2599 2581.0211 1359.9621 2628.3885 1030.1575 2109.613 1597.2599"/>
        </g>
        <g id="_Radial_Repeat_-16" data-name="&amp;lt;Radial Repeat&amp;gt;">
          <polygon class="cls-3" points="841.0507 1381.3913 1045.3995 894.7936 867.2271 613.2456 841.0507 1381.3913"/>
          <polygon class="cls-3" points="2096.5481 1026.5721 2300.8969 539.9744 2122.7245 258.4263 2096.5481 1026.5721"/>
        </g>
        <g id="_Radial_Repeat_-17" data-name="&amp;lt;Radial Repeat&amp;gt;">
          <polygon class="cls-3" points="991.7306 1686.2893 831.0987 1183.5635 512.7645 1085.1864 991.7306 1686.2893"/>
          <polygon class="cls-3" points="1715.9817 601.1023 1555.3498 98.3765 1237.0156 -.0006 1715.9817 601.1023"/>
        </g>
      </g>
      <circle class="cls-2" cx="1341.4325" cy="1316.6479" r="145.3406"/>
    </g>
  </g>
</svg>