<?xml version="1.0" encoding="UTF-8"?>
<svg id="Layer_2" data-name="Layer 2" xmlns="http://www.w3.org/2000/svg" xmlns:xlink="http://www.w3.org/1999/xlink" viewBox="0 0 838.3099 618.6707">
  <defs>
    <style>
      .cls-1 {
        fill: none;
      }

      .cls-2 {
        clip-path: url(#clippath);
      }

      .cls-3 {
        fill: #828181;
      }
    </style>
    <clipPath id="clippath">
      <rect class="cls-1" width="838.3099" height="618.6707"/>
    </clipPath>
  </defs>
  <g id="Layer_1-2" data-name="Layer 1">
    <g class="cls-2">
      <rect class="cls-3" x="-175.7316" y="-188.9949" width="1137.5" height="5.5463" transform="translate(-40.942 -157.5799) rotate(21.5766)"/>
      <rect class="cls-3" x="-175.7316" y="-204.9318" width="1137.5" height="5.5463" transform="translate(-46.8028 -158.6967) rotate(21.5766)"/>
      <rect class="cls-3" x="-175.7316" y="-158.1183" width="1137.5" height="5.5463" transform="translate(-29.5873 -155.4163) rotate(21.5766)"/>
      <rect class="cls-3" x="-175.7316" y="-174.0552" width="1137.5" height="5.5463" transform="translate(-35.448 -156.533) rotate(21.5766)"/>
      <rect class="cls-3" x="-175.7316" y="-127.5066" width="1137.5" height="5.5463" transform="translate(-18.33 -153.2712) rotate(21.5766)"/>
      <rect class="cls-3" x="-175.7316" y="-143.4435" width="1137.5" height="5.5463" transform="translate(-24.1907 -154.388) rotate(21.5766)"/>
      <rect class="cls-3" x="-175.7316" y="-96.63" width="1137.5" height="5.5463" transform="translate(-6.9753 -151.1076) rotate(21.5766)"/>
      <rect class="cls-3" x="-175.7316" y="-112.5669" width="1137.5" height="5.5463" transform="translate(-12.836 -152.2243) rotate(21.5766)"/>
      <rect class="cls-3" x="-175.7316" y="-66.6797" width="1137.5" height="5.5463" transform="translate(4.0388 -149.0089) rotate(21.5766)"/>
      <rect class="cls-3" x="-175.7316" y="-82.6167" width="1137.5" height="5.5463" transform="translate(-1.8219 -150.1256) rotate(21.5766)"/>
      <rect class="cls-3" x="-175.7316" y="-35.8031" width="1137.5" height="5.5463" transform="translate(15.3935 -146.8452) rotate(21.5766)"/>
      <rect class="cls-3" x="-175.7316" y="-51.74" width="1137.5" height="5.5463" transform="translate(9.5328 -147.962) rotate(21.5766)"/>
      <rect class="cls-3" x="-175.7316" y="-5.1914" width="1137.5" height="5.5463" transform="translate(26.6509 -144.7002) rotate(21.5766)"/>
      <rect class="cls-3" x="-175.7316" y="-21.1283" width="1137.5" height="5.5463" transform="translate(20.7901 -145.8169) rotate(21.5766)"/>
      <rect class="cls-3" x="-175.7316" y="25.6852" width="1137.5" height="5.5463" transform="translate(38.0056 -142.5365) rotate(21.5766)"/>
      <rect class="cls-3" x="-175.7316" y="9.7483" width="1137.5" height="5.5463" transform="translate(32.1449 -143.6533) rotate(21.5766)"/>
      <rect class="cls-3" x="-175.7316" y="53.6157" width="1137.5" height="5.5463" transform="translate(48.2769 -140.5793) rotate(21.5766)"/>
      <rect class="cls-3" x="-175.7316" y="37.6788" width="1137.5" height="5.5463" transform="translate(42.4162 -141.6961) rotate(21.5766)"/>
      <rect class="cls-3" x="-175.7316" y="84.4923" width="1137.5" height="5.5463" transform="translate(59.6316 -138.4157) rotate(21.5766)"/>
      <rect class="cls-3" x="-175.7316" y="68.5554" width="1137.5" height="5.5463" transform="translate(53.7709 -139.5325) rotate(21.5766)"/>
      <rect class="cls-3" x="-175.7316" y="115.104" width="1137.5" height="5.5463" transform="translate(70.8889 -136.2706) rotate(21.5766)"/>
      <rect class="cls-3" x="-175.7316" y="99.1671" width="1137.5" height="5.5463" transform="translate(65.0282 -137.3874) rotate(21.5766)"/>
      <rect class="cls-3" x="-175.7316" y="145.9807" width="1137.5" height="5.5463" transform="translate(82.2437 -134.107) rotate(21.5766)"/>
      <rect class="cls-3" x="-175.7316" y="130.0437" width="1137.5" height="5.5463" transform="translate(76.383 -135.2238) rotate(21.5766)"/>
      <rect class="cls-3" x="-175.7316" y="175.9309" width="1137.5" height="5.5463" transform="translate(93.2577 -132.0083) rotate(21.5766)"/>
      <rect class="cls-3" x="-175.7316" y="159.994" width="1137.5" height="5.5463" transform="translate(87.397 -133.125) rotate(21.5766)"/>
      <rect class="cls-3" x="-175.7316" y="206.8075" width="1137.5" height="5.5463" transform="translate(104.6125 -129.8447) rotate(21.5766)"/>
      <rect class="cls-3" x="-175.7316" y="190.8706" width="1137.5" height="5.5463" transform="translate(98.7518 -130.9614) rotate(21.5766)"/>
      <rect class="cls-3" x="-175.7316" y="237.4192" width="1137.5" height="5.5463" transform="translate(115.8698 -127.6996) rotate(21.5766)"/>
      <rect class="cls-3" x="-175.7316" y="221.4823" width="1137.5" height="5.5463" transform="translate(110.0091 -128.8163) rotate(21.5766)"/>
      <rect class="cls-3" x="-175.7316" y="268.2958" width="1137.5" height="5.5463" transform="translate(127.2245 -125.536) rotate(21.5766)"/>
      <rect class="cls-3" x="-175.7316" y="252.3589" width="1137.5" height="5.5463" transform="translate(121.3638 -126.6527) rotate(21.5766)"/>
      <rect class="cls-3" x="-175.7316" y="296.2263" width="1137.5" height="5.5463" transform="translate(137.4958 -123.5788) rotate(21.5766)"/>
      <rect class="cls-3" x="-175.7316" y="280.2894" width="1137.5" height="5.5463" transform="translate(131.6351 -124.6955) rotate(21.5766)"/>
      <rect class="cls-3" x="-175.7316" y="327.103" width="1137.5" height="5.5463" transform="translate(148.8506 -121.4151) rotate(21.5766)"/>
      <rect class="cls-3" x="-175.7316" y="311.166" width="1137.5" height="5.5463" transform="translate(142.9899 -122.5319) rotate(21.5766)"/>
      <rect class="cls-3" x="-175.7316" y="357.7147" width="1137.5" height="5.5463" transform="translate(160.1079 -119.2701) rotate(21.5766)"/>
      <rect class="cls-3" x="-175.7316" y="341.7777" width="1137.5" height="5.5463" transform="translate(154.2472 -120.3868) rotate(21.5766)"/>
      <rect class="cls-3" x="-175.7316" y="388.5913" width="1137.5" height="5.5463" transform="translate(171.4626 -117.1064) rotate(21.5766)"/>
      <rect class="cls-3" x="-175.7316" y="372.6544" width="1137.5" height="5.5463" transform="translate(165.6019 -118.2232) rotate(21.5766)"/>
      <rect class="cls-3" x="-175.7316" y="418.5415" width="1137.5" height="5.5463" transform="translate(182.4767 -115.0077) rotate(21.5766)"/>
      <rect class="cls-3" x="-175.7316" y="402.6046" width="1137.5" height="5.5463" transform="translate(176.616 -116.1245) rotate(21.5766)"/>
      <rect class="cls-3" x="-175.7316" y="449.4182" width="1137.5" height="5.5463" transform="translate(193.8314 -112.8441) rotate(21.5766)"/>
      <rect class="cls-3" x="-175.7316" y="433.4812" width="1137.5" height="5.5463" transform="translate(187.9707 -113.9608) rotate(21.5766)"/>
      <rect class="cls-3" x="-175.7316" y="480.0298" width="1137.5" height="5.5463" transform="translate(205.0887 -110.699) rotate(21.5766)"/>
      <rect class="cls-3" x="-175.7316" y="464.0929" width="1137.5" height="5.5463" transform="translate(199.228 -111.8158) rotate(21.5766)"/>
      <rect class="cls-3" x="-175.7316" y="510.9065" width="1137.5" height="5.5463" transform="translate(216.4435 -108.5354) rotate(21.5766)"/>
      <rect class="cls-3" x="-175.7316" y="494.9695" width="1137.5" height="5.5463" transform="translate(210.5827 -109.6521) rotate(21.5766)"/>
      <rect class="cls-3" x="-175.7316" y="538.837" width="1137.5" height="5.5463" transform="translate(226.7148 -106.5782) rotate(21.5766)"/>
      <rect class="cls-3" x="-175.7316" y="522.9" width="1137.5" height="5.5463" transform="translate(220.8541 -107.695) rotate(21.5766)"/>
      <rect class="cls-3" x="-175.7316" y="569.7136" width="1137.5" height="5.5463" transform="translate(238.0695 -104.4146) rotate(21.5766)"/>
      <rect class="cls-3" x="-175.7316" y="553.7767" width="1137.5" height="5.5463" transform="translate(232.2088 -105.5313) rotate(21.5766)"/>
      <rect class="cls-3" x="-175.7316" y="600.3253" width="1137.5" height="5.5463" transform="translate(249.3268 -102.2695) rotate(21.5766)"/>
      <rect class="cls-3" x="-175.7316" y="584.3884" width="1137.5" height="5.5463" transform="translate(243.4661 -103.3863) rotate(21.5766)"/>
      <rect class="cls-3" x="-175.7316" y="631.2019" width="1137.5" height="5.5463" transform="translate(260.6816 -100.1059) rotate(21.5766)"/>
      <rect class="cls-3" x="-175.7316" y="615.265" width="1137.5" height="5.5463" transform="translate(254.8208 -101.2226) rotate(21.5766)"/>
      <rect class="cls-3" x="-175.7316" y="661.1521" width="1137.5" height="5.5463" transform="translate(271.6956 -98.0071) rotate(21.5766)"/>
      <rect class="cls-3" x="-175.7316" y="645.2152" width="1137.5" height="5.5463" transform="translate(265.8349 -99.1239) rotate(21.5766)"/>
      <rect class="cls-3" x="-175.7316" y="692.0288" width="1137.5" height="5.5463" transform="translate(283.0504 -95.8435) rotate(21.5766)"/>
      <rect class="cls-3" x="-175.7316" y="676.0918" width="1137.5" height="5.5463" transform="translate(277.1896 -96.9603) rotate(21.5766)"/>
      <rect class="cls-3" x="-175.7316" y="722.6405" width="1137.5" height="5.5463" transform="translate(294.3077 -93.6984) rotate(21.5766)"/>
      <rect class="cls-3" x="-175.7316" y="706.7035" width="1137.5" height="5.5463" transform="translate(288.4469 -94.8152) rotate(21.5766)"/>
      <rect class="cls-3" x="-175.7316" y="753.5171" width="1137.5" height="5.5463" transform="translate(305.6624 -91.5348) rotate(21.5766)"/>
      <rect class="cls-3" x="-175.7316" y="737.5802" width="1137.5" height="5.5463" transform="translate(299.8017 -92.6516) rotate(21.5766)"/>
    </g>
  </g>
</svg>