<?xml version="1.0" encoding="UTF-8"?>
<svg id="Layer_2" data-name="Layer 2" xmlns="http://www.w3.org/2000/svg" viewBox="0 0 183.7036 183.7036">
  <defs>
    <style>
      .cls-1 {
        fill: #fff;
      }
    </style>
  </defs>
  <g id="Layer_1-2" data-name="Layer 1">
    <polygon class="cls-1" points="91.8518 45.3534 106.3997 0 106.2206 47.6292 134.0714 8.9911 119.1829 54.2338 157.6104 26.0932 129.4698 64.5207 174.7125 49.6322 136.0744 77.483 183.7036 77.3039 138.3502 91.8518 183.7036 106.3997 136.0744 106.2206 174.7125 134.0714 129.4698 119.1829 157.6104 157.6104 119.1829 129.4698 134.0714 174.7125 106.2206 136.0744 106.3997 183.7036 91.8518 138.3502 77.3039 183.7036 77.483 136.0744 49.6322 174.7125 64.5207 129.4698 26.0932 157.6104 54.2338 119.1829 8.9911 134.0714 47.6292 106.2206 0 106.3997 45.3534 91.8518 0 77.3039 47.6292 77.483 8.9911 49.6322 54.2338 64.5207 26.0932 26.0932 64.5207 54.2338 49.6322 8.9911 77.483 47.6292 77.3039 0 91.8518 45.3534"/>
  </g>
</svg>