<?xml version="1.0" encoding="UTF-8"?>
<svg id="Layer_2" data-name="Layer 2" xmlns="http://www.w3.org/2000/svg" xmlns:xlink="http://www.w3.org/1999/xlink" viewBox="0 0 982 518.728">
  <defs>
    <style>
      .cls-1 {
        fill: none;
      }

      .cls-2 {
        clip-path: url(#clippath);
      }
    </style>
    <clipPath id="clippath">
      <rect class="cls-1" width="982" height="518.728"/>
    </clipPath>
  </defs>
  <g id="Layer_1-2" data-name="Layer 1">
    <g class="cls-2">
      <g id="Group_142" data-name="Group 142">
        <path id="Path_205" data-name="Path 205" d="m81.696,145.445c-.3284,1.9345-.5036,3.8919-.524,5.854.0176,2.203.2667,4.398.743,6.549.6142,2.8395,1.3752,5.6453,2.28,8.406,1.01,3.144,2.393,6.951,4.093,11.351,1.893,4.9,3.436,9.257,4.654,13.041,1.1254,3.4233,2.0293,6.9156,2.706,10.455.5649,2.9537.8525,5.9538.859,8.961-.0264,2.9369-.2748,5.8676-.743,8.767-1.394,8.829-2.09,13.245-3.484,22.074-.3314,2.6623-1.2728,5.2122-2.751,7.451-1.2163,1.8043-3.0025,3.1486-5.073,3.818-2.2353.641-4.6054.6434-6.842.007-2.9254-.8347-5.6517-2.2525-8.015-4.168-5.623-4.3-10.283-10.448-13.95-18.27-2.065-4.446-3.675-7.987-4.837-10.568s-2.071-4.626-2.717-6.091-1.146-2.706-1.488-3.7-.779-2.209-1.3-3.648c-1.0283-2.8915-1.7696-5.8773-2.213-8.914-.2888-2.2917-.2332-4.6137.165-6.889,2.489-13.79,3.732-20.686,6.221-34.476,6.241,6.006,9.363,8.849,15.6,14.234,2.446,6.372,3.675,9.526,6.144,15.768.2458-2.1736.304-4.3644.174-6.548-.1777-2.4597-.5773-4.8983-1.194-7.286-.6667-2.6873-1.6047-5.7873-2.814-9.3-1.208-3.514-2.814-7.825-4.805-12.982-5.382-14.532-7.173-26.8-5.476-36.2,1.245-6.895,1.866-10.343,3.111-17.238.3665-2.6764,1.4362-5.2078,3.1-7.336,1.3467-1.6631,3.2306-2.8052,5.328-3.23,2.3195-.3657,4.6947-.0973,6.874.777,2.9083,1.1338,5.5935,2.7723,7.932,4.84,1.752,1.4809,3.3513,3.1334,4.774,4.933,1.7422,2.2574,3.2977,4.653,4.651,7.163,1.61,2.9033,3.3123,6.334,5.107,10.292,1.793,3.953,3.844,8.712,6.158,14.23,1.4516,3.2569,2.4865,6.684,3.08,10.2.419,3.1098.3694,6.2649-.147,9.36-1.46,9.256-2.19,13.881-3.65,23.135-5.788-3.8-8.682-5.822-14.47-10.121-2.834-6.29-4.244-9.476-7.052-15.931-.084.492-.124.736-.208,1.229m14.19-19.84c.8867-5.8719.1025-11.8749-2.263-17.322-2.2661-5.7044-5.9148-10.7559-10.618-14.7-2.0203-1.7749-4.3487-3.1645-6.87-4.1-1.9307-.7484-4.0291-.9558-6.069-.6-1.8387.4033-3.4896,1.4101-4.69,2.86-1.4831,1.8704-2.433,4.107-2.749,6.473-1.236,6.9-1.856,10.352-3.092,17.251-.4548,2.508-.689,5.0511-.7,7.6.0156,2.7488.2864,5.4903.809,8.189.6453,3.3469,1.48,6.6546,2.5,9.907,1.118,3.645,2.559,7.919,4.374,12.673,1.7,4.449,3.127,8.318,4.187,11.607.9599,2.9198,1.765,5.8883,2.412,8.893.5194,2.4069.8243,4.8552.911,7.316.0581,2.2411-.1006,4.4825-.474,6.693-1.444,8.567-2.165,12.849-3.609,21.416-.415,2.458-1.31,4.009-2.674,4.63s-3,.157-4.893-1.42c-1.998-1.7387-3.4942-3.9807-4.333-6.493-.9668-2.4759-1.2604-5.1637-.851-7.79,1.988-11.4,2.982-17.1,4.968-28.505-4.275-3.754-6.412-5.7-10.687-9.747l-5.722,31.879c-.855,4.765.113,10.29,2.914,16.426,2.7337,6.082,6.8097,11.4658,11.922,15.747,5.032,4.193,9.4,5.647,13.1,4.564s5.985-4.453,6.889-9.971c1.441-8.8,2.162-13.2,3.6-22,.4724-2.8458.7282-5.7234.765-8.608.0126-2.9932-.2677-5.9804-.837-8.919-.6901-3.5392-1.5883-7.0346-2.69-10.468-1.204-3.8427-2.734-8.3093-4.59-13.4-1.594-4.358-2.9-8.187-3.9-11.432-.9038-2.8928-1.6384-5.8358-2.2-8.814-.4477-2.3334-.691-4.7013-.727-7.077-.007-2.107.1724-4.2106.536-6.286,1.013-5.806,1.519-8.708,2.53-14.515.427-2.447,1.36-3.91,2.795-4.406s3.055.026,4.867,1.551c1.8442,1.572,3.2267,3.6154,4,5.912.86,2.4021,1.0822,4.9863.645,7.5-1.373,8.144-2.059,12.217-3.432,20.362,4.2,3.366,6.3,4.979,10.5,8.074,1.373-8.38,2.059-12.57,3.431-20.95"/>
        <path id="Path_206" data-name="Path 206" d="m117.105,116.831c13.6,8,27.015,15.678,41.773,21.406,3.534,6.964,5.311,10.39,8.892,17.132-.843,6.345-1.264,9.516-2.106,15.859-5.4-1.847-8.1-2.861-13.5-5.08l-16.483,119.038c-6-2.436-9-3.763-15-6.656-4.234-7.133-6.339-10.771-10.527-18.2,5.3233-35.568,10.647-71.1347,15.971-106.7-.708-.391-1.061-.589-1.769-.986-3.978-7.388-5.956-11.155-9.89-18.835,1.057-6.787,1.585-10.184,2.642-16.972m.163,15.809c5.369,3.308,8.055,4.857,13.422,7.756-5.8767,39.54-11.7537,79.0817-17.631,118.625,4.358,2.328,6.536,3.428,10.894,5.5,5.7087-39.6093,11.4163-79.218,17.123-118.826,5.369,2.587,8.053,3.782,13.422,5.984.65-4.7.974-7.046,1.625-11.744-12.8875-5.2141-25.2866-11.5624-37.051-18.97-.721,4.67-1.082,7-1.8,11.674"/>
        <path id="Path_207" data-name="Path 207" d="m187.23,272.657c-2.2,10.471-3.31,15.7-5.532,26.164-5.8-1.111-8.7-1.756-14.495-3.239-4.321-6.041-6.47-9.129-10.745-15.441,9.7927-44.35,19.389-88.741,28.789-133.173,7.3116,2.02,14.7367,3.6045,22.236,4.745,3.648,5.906,5.484,8.808,9.177,14.514-1.7513,45.484-3.3477,90.9737-4.789,136.469-5.8-.39-8.7-.667-14.5-1.394-4.377-5.4-6.553-8.166-10.883-13.821.293-5.929.44-8.893.739-14.824m1.926,12.551c4.156.7,6.234,1,10.39,1.514,1.654-44.2407,3.454-88.474,5.4-132.7-7.123-1.227-10.686-1.981-17.808-3.8-9.036,42.728-18.2513,85.416-27.646,128.064,4.158,1.251,6.236,1.825,10.392,2.876,2.712-12.791,4.06-19.189,6.745-31.995,5.626,1.361,8.439,1.95,14.065,2.958-.627,13.235-.933,19.852-1.535,33.079m5.342-113.455c-1.1833,23.3473-2.3243,46.6967-3.423,70.048-4.943-.907-7.416-1.426-12.359-2.606,4.7253-22.5947,9.399-45.2,14.021-67.816.7.152,1.057.227,1.762.374"/>
        <path id="Path_208" data-name="Path 208" d="m237.5,154.64c8.069.286,12.1.259,20.174-.082,2.0859-.1498,4.1812.099,6.174.733,1.9557.7701,3.7525,1.8946,5.3,3.317,1.258,1.1907,2.536,2.4857,3.834,3.885,1.298,1.3993,2.544,2.795,3.738,4.187,1.1082,1.2737,2.127,2.6226,3.049,4.037.6953,1.0379,1.2896,2.1399,1.775,3.291,1.2709,3.608,1.7022,7.4583,1.261,11.258l-2.6,30.6c-.1574,3.4087-.8513,6.7713-2.056,9.964-1.1887,2.4875-2.9598,4.6517-5.163,6.309,1.0773,1.2747,1.9543,2.394,2.631,3.358.6813.9812,1.1918,2.0706,1.51,3.222.3443,1.2645.5347,2.5659.567,3.876.0283,1.7691-.0412,3.5385-.208,5.3-1.263,14.874-1.894,22.312-3.158,37.187-.1349,1.4365-.1746,2.8803-.119,4.322.0484,1.1335.232,2.2571.547,3.347.3298,1.0702.8024,2.091,1.405,3.035.7728,1.1958,1.6521,2.3193,2.627,3.357-6.54,1.066-9.809,1.52-16.351,2.258-4.783-4.752-7.161-7.183-11.89-12.175-.5,5.35-.753,8.024-1.257,13.372-6,.418-9,.549-15,.65-4.446-4.7-6.656-7.1-11.055-12.03,4.7567-45.5273,9.5127-91.0533,14.268-136.578m-11.476,133.96c4.358.085,6.536.082,10.893-.006,1.9853-19.984,3.9697-39.9683,5.953-59.953,2.0352-.0811,4.0734.0388,6.085.358,1.3268.1875,2.5741.744,3.6,1.606.8983.8783,1.4779,2.0311,1.647,3.276.2554,1.7604.2785,3.5466.069,5.313-1.373,14.549-2.059,21.822-3.433,36.372-.168,1.784-.284,3.3-.346,4.542-.0738,1.0629-.0065,2.1308.2,3.176.1722.8061.4334,1.5906.779,2.339.3813.7788.8421,1.516,1.375,2.2,4.358-.333,6.536-.539,10.893-1.026-1.1058-1.3279-1.8486-2.9196-2.156-4.62-.2412-2.619-.1979-5.2563.129-7.866,1.342-14.894,2.015-22.34,3.358-37.234.45-4.989.044-8.592-1.211-10.836s-3.676-3.848-7.251-4.918c4.006-1.2,6.785-2.989,8.339-5.254s2.555-5.952,3.016-11.058c1.105-12.256,1.659-18.384,2.764-30.642.536-5.937-.337-10.321-2.6-13.2s-5.831-4.143-10.705-3.935c-7.124.3-10.687.338-17.81.156-4.5267,43.7373-9.053,87.4737-13.579,131.209m24.841-119.595c3.834-.088,6.411.434,7.722,1.665s1.806,3.623,1.47,7.191c-1,10.554-1.5,15.831-2.492,26.389-.4373,4.6347-1.6083,7.893-3.513,9.775-1.907,1.875-5.257,3-10.047,3.2,1.594-16.058,3.1883-32.1167,4.783-48.176.83-.012,1.247-.021,2.077-.04"/>
        <path id="Path_209" data-name="Path 209" d="m293.412,150.815c14.1024-2.2735,28.0535-5.4026,41.776-9.37,3.916,4.038,5.887,6.024,9.85,9.935-.38,6.281-.57,9.42-.951,15.7-5.4,1.656-8.1,2.446-13.5,3.929-2.6,39.4267-5.2,78.854-7.8,118.282-6,1.682-9,2.471-15,3.931-4.581-3.551-6.861-5.369-11.4-9.1,2.7213-35.6133,5.4417-71.227,8.161-106.841-.708.146-1.061.216-1.768.359-4.328-3.819-6.48-5.771-10.761-9.766.559-6.826.837-10.24,1.4-17.066m1.219,14c5.369-.923,8.053-1.441,13.422-2.575-2.9833,39.564-5.967,79.1283-8.951,118.693,4.358-.945,6.536-1.45,10.894-2.521,2.8153-39.506,5.6303-79.0127,8.445-118.52,5.369-1.291,8.053-1.985,13.422-3.461.306-4.668.461-7,.768-11.669-12.1764,3.5003-24.5486,6.2801-37.052,8.325-.378,4.692-.568,7.038-.948,11.729"/>
        <path id="Path_210" data-name="Path 210" d="m394.92,196.317c-.708-3.9487-1.8877-11.865-3.539-23.749-2.2-15.8987-4.413-31.802-6.639-47.71,6.035-2.309,9.054-3.5,15.088-5.956,3.7,3.1,5.554,4.636,9.288,7.668.864-4.964,1.294-7.444,2.15-12.4,6.1-2.573,9.148-3.888,15.247-6.565,4.055,3.223,6.094,4.817,10.193,7.975-5.0893,27.1673-10.2787,54.3173-15.568,81.45-.5333,18.7453-1.0687,37.4903-1.606,56.235-6,2.658-9,3.965-15,6.521-4.759-2.57-7.129-3.879-11.844-6.551.7447-18.9733,1.489-37.9453,2.233-56.916m.383,53.264c4.358-1.8,6.536-2.715,10.894-4.574.6193-18.224,1.2383-36.4457,1.857-54.665,5.2187-26.2567,10.3417-52.529,15.369-78.817-4.071,1.776-6.106,2.652-10.177,4.378-3.036,17.5513-6.1197,35.095-9.251,52.631l-.812.339c-1.9-15.4987-3.7397-31.0037-5.519-46.515-4.007,1.614-6.012,2.411-10.019,3.965,3.1187,22.8393,6.37,45.6613,9.754,68.466-.6993,18.2667-1.3994,36.5303-2.1,54.791"/>
        <path id="Path_211" data-name="Path 211" d="m492.676,200.172c-.0027,3.0062-.5097,5.9906-1.5,8.829-1.0088,2.9293-2.3955,5.7145-4.125,8.285-1.777,2.6377-3.874,5.045-6.243,7.167-2.3469,2.1313-4.9908,3.9106-7.849,5.282-3.0125,1.4062-6.3787,1.8725-9.66,1.338-4.4858-.8147-8.826-2.2901-12.879-4.378-2.8267-1.1537-5.1855-3.221-6.7-5.872-1.276-2.43-1.874-5.6633-1.794-9.7.6093-30.514,1.218-61.0287,1.826-91.544.1487-7.4833,1.7153-13.503,4.7-18.059s7.801-8.3773,14.449-11.464c2.0008-1.0163,4.1825-1.628,6.42-1.8,2.2724.0295,4.5111.5529,6.561,1.534,5.907,2.462,10.19,5.049,12.8,7.8,2.5764,2.6545,3.9901,6.2253,3.929,9.924.022,30.8867.0437,61.7733.065,92.66m-48.257,9.806c-.11,5.868,1.439,9.8,4.67,11.779s7.541,1.7,12.907-.836c5.0214-2.3677,9.275-6.1011,12.274-10.773,3.069-4.5574,4.722-9.9206,4.751-15.415l.455-92.967c.025-4.907-1.556-8.206-4.717-9.909s-7.175-1.416-12.047.852c-5.828,2.714-10.0117,6.0453-12.551,9.994-2.5433,3.9647-3.879,9.225-4.007,15.781-.5767,30.498-1.1547,60.9957-1.734,91.493m12.32-97.223c.0264-2.055.6039-4.0652,1.672-5.821,1.0036-1.7408,2.5175-3.1314,4.337-3.984,1.2526-.7542,2.8262-.725,4.05.075,1.1764.9498,1.7908,2.4314,1.632,3.935-.3033,31.7047-.607,63.409-.911,95.113-.13,1.8103-.7831,3.5439-1.88,4.99-1.022,1.6427-2.4713,2.9766-4.193,3.859-1.784.8387-3.2506.9013-4.4.188-1.1493-.7133-1.7097-2.0467-1.681-4l1.374-94.355"/>
        <path id="Path_212" data-name="Path 212" d="m555.977,167.189c.2,7.51-1.4117,14.0207-4.835,19.532-3.4333,5.5247-8.5843,9.875-15.453,13.051-1.7344.8342-3.5421,1.5067-5.4,2.009-1.5205.3921-3.0963.5253-4.661.394-1.7045-.1803-3.369-.6331-4.93-1.341-2.1174-.9056-4.1868-1.9196-6.2-3.038-1.7403-.9762-3.36-2.1533-4.826-3.507-1.2674-1.1636-2.327-2.5349-3.133-4.055-.8464-1.6827-1.3952-3.4991-1.622-5.369-.3111-2.3873-.4641-4.7925-.458-7.2-.2-35.2793-.3973-70.56-.592-105.842,5.972-2.809,8.96-4.212,14.932-6.992,3.351,2.394,5.033,3.589,8.412,5.982-.062-3.925-.093-5.887-.153-9.812,6.035-2.786,9.052-4.168,15.089-6.89,4.366,3,6.562,4.5,10.974,7.519.952,35.1867,1.9044,70.3737,2.857,105.561m-49.028,9.289c.1,15.192,5.96,20,17.588,14.535,11.961-5.62,17.791-15.365,17.493-29.419-.7373-34.626-1.475-69.2517-2.213-103.877-4.134,1.873-6.2,2.818-10.334,4.721.5813,34.716,1.1627,69.431,1.744,104.145.112,6.7627-2.1687,11.2367-6.842,13.422-2.3333,1.098-4.0397,1.1053-5.119.022-1.0793-1.0833-1.6357-3.435-1.669-7.055-.384-34.8293-.7686-69.658-1.154-104.486-4.071,1.9-6.106,2.855-10.177,4.768.2267,34.408.4543,68.8163.683,103.225"/>
        <path id="Path_213" data-name="Path 213" d="m564.701,44.17c8.069-3.46,12.1-5.148,20.174-8.393,1.9979-.8776,4.1395-1.3822,6.319-1.489,2.0022.0292,3.9768.4718,5.8,1.3,1.4333.6933,2.9037,1.489,4.411,2.387s2.9624,1.8213,4.365,2.77c1.2941.8613,2.5149,1.8279,3.65,2.89.8455.7687,1.6022,1.6298,2.256,2.567,1.7982,3.0203,2.773,6.4593,2.827,9.974.617,11.407.926,17.11,1.542,28.516.2989,3.2059.0507,6.4393-.734,9.562-.928,2.6334-2.4279,5.0285-4.392,7.013,1.0884.742,2.1353,1.5432,3.136,2.4.8225.7224,1.4955,1.5989,1.981,2.58.5247,1.0766.8972,2.2209,1.107,3.4.2737,1.6163.4464,3.2482.517,4.886.749,13.86,1.124,20.791,1.873,34.65.0576,1.3346.215,2.6629.471,3.974.2027,1.0183.5445,2.0039,1.016,2.929.4904.9095,1.1143,1.7404,1.851,2.465.9679.9357,2.0208,1.7794,3.145,2.52-6.54,2.294-9.81,3.494-16.349,5.978-5.507-2.988-8.246-4.458-13.7-7.363.221,5,.331,7.5.549,12.495-6,2.4-9,3.64-15,6.166-5.091-2.408-7.625-3.6-12.67-5.956l-4.15-128.22m6.5891,124.617c4.358-1.884,6.536-2.812,10.894-4.639-.7127-18.7153-1.425-37.4303-2.137-56.145,1.9824-.8735,4.0446-1.553,6.158-2.029,1.2654-.3283,2.5992-.2793,3.837.141,1.0073.4567,1.7714,1.322,2.1,2.378.5038,1.5408.7711,3.1491.793,4.77.59,13.6.887,20.4,1.478,33.995.074,1.666.162,3.074.269,4.215.0621.9607.2751,1.9056.631,2.8.2788.6642.649,1.2863,1.1,1.848.4952.58,1.0621,1.0948,1.687,1.532,4.358-1.728,6.537-2.574,10.895-4.227-1.2875-.874-2.2726-2.1253-2.82-3.582-.6068-2.343-.9231-4.7518-.942-7.172-.67-13.9-1-20.85-1.673-34.75-.2253-4.6547-1.1253-7.8087-2.7-9.462-1.575-1.65-4.244-2.368-8-2.122,3.876-2.444,6.447-4.9,7.712-7.422s1.776-6.155,1.547-10.92c-.55-11.44-.826-17.159-1.378-28.6-.2667-5.5407-1.7437-9.266-4.431-11.176-2.68-1.9-6.458-1.9-11.332.057-7.124,2.867-10.686,4.349-17.81,7.385,1.3733,41.0413,2.746,82.082,4.118,123.122m8.713-117.452c3.834-1.575,6.5-2.018,7.987-1.37s2.312,2.642,2.456,5.972c.43,9.868.645,14.8,1.073,24.666.1887,4.3333-.549,7.68-2.213,10.04-1.666,2.365-4.888,4.568-9.663,6.665-.5706-15.0393-1.143-30.078-1.717-45.116.832-.344,1.248-.517,2.078-.857"/>
        <path id="Path_214" data-name="Path 214" d="m679.064,6.658c2.3956-.4948,4.8395-.7158,7.285-.659,2.1159.0877,4.2013.5365,6.166,1.327,2.246.9436,4.3445,2.2056,6.231,3.747,2.1487,1.6987,4.6487,3.926,7.5,6.682,1.9315,1.5777,3.4576,3.5944,4.451,5.882,1.0584,2.5971,1.711,5.3415,1.935,8.137l8.451,85.722c.303,2.785.0925,5.602-.621,8.311-.654,2.4935-1.7456,4.8511-3.224,6.963-1.442,2.0346-3.2784,3.7584-5.4,5.069-2.2192,1.3654-4.6925,2.2663-7.27,2.648-8.7,1.383-13.045,2.221-21.744,4.14-4.874-3.4-7.3-5.066-12.131-8.346-3.192-41.9007-6.3846-83.8007-9.578-125.7,7.179-1.747,10.77-2.537,17.947-3.922m14.741,122.058c4.1762-.6213,7.8549-3.0794,10.027-6.7,2.212-3.66,3.038-8.411,2.495-14.3-2.59-27.9593-5.1794-55.9183-7.768-83.877-1.091-11.772-7.517-17-19.285-14.73-6.234,1.2-9.35,1.876-15.584,3.355,3.1127,40.2407,6.2237,80.4813,9.333,120.722,8.312-2.021,12.467-2.924,20.782-4.474m-19.606-108.57c2.364-.5,3.545-.736,5.91-1.2,2.475-.146,4.275.364,5.4,1.494s1.815,3.117,2.062,5.954c2.442,27.8907,4.8846,55.7797,7.328,83.667.2767,3.1673-.1436,5.4607-1.261,6.88-1.121,1.428-3.239,2.427-6.353,3.057-1.935.391-2.905.593-4.84,1.011-2.752-33.6213-5.5007-67.2423-8.246-100.863"/>
        <path id="Path_215" data-name="Path 215" d="m758.746,112.447c.184,9.675.271,14.515.436,24.2-5.8-.147-8.7-.14-14.495.021-5.394-4.233-8.08-6.3-13.428-10.325-.4373-41.7667-1.052-83.5307-1.844-125.292,7.4146-.2425,14.8368-.0957,22.236.44,4.817,5.029,7.236,7.588,12.1,12.807,8.396,41.658,16.9293,83.2873,25.6,124.888-5.8-.842-8.7-1.173-14.495-1.672-5.45-4.786-8.162-7.119-13.566-11.672-1.021-5.36-1.531-8.038-2.546-13.4m4.609,11.052c4.156.2,6.236.339,10.39.706-8.1413-40.1047-16.1519-80.237-24.0319-120.397-7.123-.391-10.685-.455-17.808-.347.7627,40.0847,1.3574,80.1727,1.784,120.264,4.158-.252,6.236-.341,10.392-.442-.219-11.958-.337-17.933-.583-29.875,5.625-.074,8.437-.038,14.064.187,2.306,11.961,3.464,17.941,5.792,29.909m-19.765-102.416c3.994,21.0667,8.0187,42.1297,12.074,63.189-4.943-.184-7.416-.216-12.359-.171-.4547-21.0173-.9467-42.0343-1.476-63.051.7.01,1.057.016,1.762.032"/>
        <path id="Path_216" data-name="Path 216" d="m800.571,78.876c-1.422-4.224-4.025-12.542-7.776-24.9-5-16.4627-10.0333-32.9203-15.1-49.373,6.035,1.066,9.054,1.7,15.089,3.189,4.47,5.325,6.715,8.033,11.225,13.544.088-4.165.131-6.247.212-10.406,6.1,1.843,9.15,2.877,15.248,5.191,4.9,6.362,7.36,9.6,12.3,16.206-.896,21.9033-1.893,43.8003-2.991,65.691,2.5887,17.638,5.1763,35.2757,7.763,52.913-6-2.149-9-3.111-15-4.833-5.537-5.782-8.293-8.6-13.784-14.1l-7.1859-53.122Zm9.376,51.277c4.358,1.058,6.536,1.641,10.893,2.917l-7.223-51.214c1.158-21.4633,2.2247-42.93,3.2-64.4-4.071-1.481-6.1-2.166-10.177-3.438-.29,14.702-.6367,29.4043-1.04,44.107l-.811-.221c-4.6-16.0473-9.1771-32.1007-13.731-48.16-4.009-.949-6.012-1.375-10.019-2.138,7.2307,23.812,14.5387,47.602,21.924,71.37l6.985,51.175"/>
        <path id="Path_217" data-name="Path 217" d="m60.812,454.271c-.3156,2.668-1.3351,5.204-2.954,7.348-1.3919,1.77-3.3227,3.038-5.5,3.612-2.4629.568-5.0329.4675-7.444-.291-3.1691-.9735-6.1319-2.5223-8.74-4.569-3.169-2.365-6.486-6.178-9.938-11.479-4.5557-7.2707-8.653-14.8187-12.268-22.6-2.5826-5.0438-4.5356-10.3858-5.815-15.906-.8945-4.195-.9793-8.5222-.25-12.749,5.528-30.7793,11.0573-61.5603,16.588-92.343,1.355-7.548,3.918-11.42,7.67-11.768,3.752-.348,9.248,2.742,16.505,8.714,2.5059,2.0296,4.7836,4.3258,6.793,6.848,2.399,3.2285,4.5364,6.6434,6.392,10.212,5.576,10.184,9.479,18.074,11.671,24.076s2.982,10.961,2.353,14.964l-15.063,95.931Zm-50.207-54.1c-1.058,5.929-.128,12.339,2.814,19.078,2.9212,6.7563,7.4303,12.7075,13.144,17.348,5.45,4.434,10.158,6.1,14.106,5.205s6.368-4.236,7.286-9.871c5.1933-31.8787,10.3863-63.756,15.579-95.632.821-5.045-.238-10.44-3.161-16.314-2.9769-5.9052-7.1814-11.106-12.332-15.254-6.343-5.229-11.12-7.859-14.334-7.462s-5.425,3.85-6.608,10.476c-5.4987,30.81-10.9967,61.6187-16.494,92.426m28.143-83.01c.3647-2.0987,1.2427-3.3237,2.634-3.675,1.386-.359,3.066.286,5.036,1.906,1.7955,1.5084,3.1979,3.4301,4.087,5.6.9348,1.9501,1.2869,4.1287,1.014,6.274-5.4467,32.4287-10.8933,64.856-16.34,97.282-.1455,1.4171-1.2803,2.5292-2.7,2.646-1.7888.1591-3.5584-.4672-4.849-1.716-1.9367-1.5886-3.4672-3.6154-4.465-5.913-.9923-2.019-1.3576-4.2887-1.049-6.517,5.544-31.964,11.088-63.9277,16.632-95.891"/>
        <path id="Path_218" data-name="Path 218" d="m147.49,370.827c-5.8793,45.3507-11.7583,90.701-17.637,136.051-7.4917-2.1156-14.8663-4.6258-22.093-7.52-2.69-4.5-4.031-6.776-6.7-11.384-.461,3.273-.69,4.908-1.151,8.181-6.427-2.74-9.641-4.228-16.068-7.46-4.633-7.437-6.938-11.235-11.525-19l20.588-135.459c7.2742,4.2709,14.7767,8.1404,22.474,11.591,2.015,3.953,3.026,5.912,5.051,9.8l1-7.113c6.361,2.726,9.542,3.963,15.9,6.2,4.043,6.571,6.074,9.794,10.161,16.118m-23.843-18.557l-14.539,104.243c1.4513-36.2,3.0103-72.394,4.677-108.582-7.476-3.473-11.214-5.381-18.689-9.572-6.552,43.4033-13.103,86.8067-19.653,130.21,4.651,2.583,6.974,3.8,11.625,6.121,5.248-35.8493,10.498-71.699,15.75-107.549-1.7953,37.5333-3.4737,75.0697-5.035,112.609,7.628,3.406,11.442,4.933,19.072,7.666,5.8973-43.6347,11.7953-87.268,17.694-130.9-4.361-1.584-6.542-2.431-10.9-4.244"/>
        <path id="Path_219" data-name="Path 219" d="m195.756,367.676c15.1037,1.5793,30.3186,1.8015,45.462.664,4.133,4.973,6.211,7.413,10.39,12.2-.574,6.343-.861,9.513-1.433,15.856-5.872.614-8.808.855-14.679,1.189-3.812,39.7693-7.6223,79.5397-11.431,119.311-6.5.4-9.75.517-16.251.57-4.846-4.74-7.257-7.17-12.056-12.159,3.8073-35.8314,7.615-71.6624,11.423-107.493-.77-.032-1.152-.05-1.922-.088-4.592-5.039-6.876-7.619-11.42-12.907.767-6.858,1.149-10.287,1.916-17.145m.989,14.711c5.84.518,8.761.693,14.6.889-4.194,39.8153-8.3873,79.6307-12.58,119.446,4.723.137,7.083.155,11.806.1l12.071-119.4c5.84-.043,8.761-.141,14.6-.477l1.126-11.771c-13.4306.9876-26.922.7956-40.319-.574-.522,4.715-.783,7.071-1.305,11.787"/>
        <path id="Path_220" data-name="Path 220" d="m260.58,366.461c6.57-.837,9.854-1.342,16.423-2.5,3.07,3.313,4.611,4.948,7.706,8.174.306-3.906.458-5.86.764-9.768,6.57-1.313,9.855-2.044,16.424-3.641,4.258,4.05,6.4,6.035,10.7,9.937-3.036,44.7647-6.072,89.5294-9.108,134.294-6.5,1.8-9.75,2.643-16.25,4.2-3.731-2.94-5.59-4.439-9.291-7.488-.3,3.9-.452,5.857-.752,9.763-6.5,1.391-9.75,2.021-16.25,3.132-4.938-3.854-7.394-5.832-12.284-9.9,3.9707-45.4,7.9427-90.8,11.916-136.2m-8.958,133.159c4.721-.665,7.083-1.038,11.806-1.859,1.6587-20.152,3.3183-40.3033,4.979-60.454,5.613-.963,8.42-1.5,14.034-2.678-1.5553,20.1194-3.1103,40.24-4.665,60.362,4.723-1,7.083-1.539,11.806-2.68,3.176-43.434,6.3513-86.8673,9.526-130.3-4.5,1.064-6.748,1.564-11.247,2.5-1.5333,19.824-3.0667,39.6477-4.6,59.471-5.591,1.17-8.387,1.706-13.98,2.664,1.6367-19.8547,3.2723-39.709,4.907-59.563-4.5.759-6.748,1.1-11.248,1.713-3.7733,43.6093-7.5467,87.2193-11.32,130.83"/>
        <path id="Path_221" data-name="Path 221" d="m326.439,352.039c12.515-3.766,18.773-5.876,31.288-10.418,4.368,3.448,6.565,5.142,10.98,8.477-.275,5.89-.415,8.835-.692,14.724-6.009,2.306-9.014,3.423-15.025,5.576-.656,12.514-.986,18.772-1.642,31.285,1.344-.483,2.015-.726,3.358-1.216,4.474,3.4,6.724,5.067,11.244,8.35-.277,5.89-.415,8.835-.69,14.724-6.146,2.371-9.217,3.522-15.362,5.737-.677,12.866-1.014,19.3-1.69,32.164,1.373-.5,2.06-.746,3.433-1.252,4.581,3.35,6.885,4.992,11.512,8.224l-.692,14.724c-12.782,4.963-19.172,7.3-31.954,11.557-5.057-2.946-7.572-4.459-12.583-7.566l8.512-135.092m-5.62,131.6c10.97-3.419,16.455-5.291,27.425-9.276.221-4.218.33-6.327.55-10.545-6.224,2.259-9.335,3.348-15.559,5.431.9507-16.4446,1.902-32.89,2.854-49.336,6.111-2.034,9.166-3.1,15.278-5.3.221-4.218.33-6.327.55-10.545-6.085,2.2-9.129,3.254-15.216,5.277.9333-16.1507,1.8667-32.3017,2.8-48.453,5.977-1.975,8.964-3.008,14.941-5.152l.561-10.544c-10.452,3.745-15.677,5.5-26.129,8.707l-8.049,129.741"/>
        <path id="Path_222" data-name="Path 222" d="m444.87,351.601c-.0483,1.749.0675,3.4986.346,5.226.269,1.5431.8384,3.0184,1.676,4.342.9715,1.5066,2.1297,2.8842,3.447,4.1,1.7828,1.6246,3.6739,3.1264,5.66,4.495,2.2984,1.6143,4.4655,3.4079,6.481,5.364,1.671,1.6115,3.0896,3.4657,4.208,5.5,1.0591,1.9693,1.7932,4.0966,2.174,6.3.4224,2.5932.6102,5.2191.561,7.846-.071,8.577-.106,12.866-.175,21.443-.0352,3.0361-.5804,6.0447-1.613,8.9-1.0807,3.0107-2.5718,5.8579-4.431,8.461-1.9381,2.7241-4.1884,5.212-6.705,7.413-2.5352,2.2371-5.3702,4.1095-8.423,5.563-6.09,2.8993-11.4647,3.4357-16.124,1.609-2.6227-1.0613-4.6743-1.908-6.155-2.54-1.485-.627-2.642-1.127-3.467-1.488-.6885-.283-1.3416-.6454-1.946-1.08-.467-.358-1.057-.776-1.76-1.255-1.4654-1.0931-2.6266-2.5431-3.373-4.212-.6561-1.7688-.9374-3.6547-.826-5.538.393-13.747.589-20.621.982-34.367,6.774-3.039,10.162-4.589,16.938-7.725,3.27,2.115,4.911,3.164,8.2,5.247-.0504-1.8131-.3132-3.6141-.783-5.366-.4505-1.5807-1.2004-3.0602-2.209-4.358-1.1873-1.4963-2.5493-2.8452-4.057-4.018-2.072-1.6118-4.236-3.1016-6.481-4.462-7.241-4.9-10.676-12.122-10.408-21.5.2-6.873.294-10.309.492-17.182.1137-3.2488.7554-6.4574,1.9-9.5,1.1614-3.1817,2.7104-6.2082,4.612-9.011,1.9142-2.8146,4.1615-5.3876,6.693-7.663,2.4824-2.2579,5.2922-4.1271,8.334-5.544,1.6888-.8074,3.4897-1.3556,5.342-1.626,1.8635-.2209,3.7518-.0899,5.567.386,2.2526.5864,4.4327,1.4222,6.5,2.492,2.3333,1.1727,5.049,2.7307,8.147,4.674,1.9818,1.1379,3.5695,2.8532,4.551,4.917.9435,2.4503,1.3662,5.0703,1.241,7.693-.074,8.989-.11,13.482-.184,22.471-6.287,3.023-9.431,4.527-15.718,7.513-3.693-1.872-5.532-2.815-9.2-4.723l-.022,1.21m10.93-31.667c.0753-5.5073-1.5087-9.262-4.752-11.264s-7.396-1.8297-12.458.517c-2.6383,1.2428-5.0708,2.8821-7.213,4.861-4.461,4.0301-7.8818,9.0788-9.971,14.716-1.0237,2.6818-1.5952,5.515-1.691,8.384-.188,6.868-.284,10.3-.472,17.173-.0895,2.2578.0519,4.5189.422,6.748.3283,1.8925.9859,3.7127,1.943,5.378,1.0333,1.7411,2.3155,3.3218,3.806,4.692,1.8617,1.7387,3.8746,3.3079,6.015,4.689,2.0082,1.2511,3.9168,2.6553,5.709,4.2,1.3929,1.2325,2.6109,2.6496,3.62,4.212.9141,1.455,1.5723,3.0558,1.946,4.733.4014,1.9165.574,3.8738.514,5.831-.152,8.42-.228,12.63-.381,21.05-.0304,2.3694-.6907,4.688-1.913,6.718-1.1409,1.9802-2.8611,3.5632-4.929,4.536-2.0533.9607-3.7533.9543-5.1-.019-1.3467-.9733-1.9927-2.6717-1.938-5.095.262-11.282.393-16.923.656-28.205-4.64,2.138-6.961,3.2-11.6,5.292-.35,12.7-.524,19.047-.874,31.745-.131,4.743,1.572,7.832,5.12,9.232s8.118.805,13.69-1.8c5.3948-2.507,10.0081-6.4311,13.348-11.3539,3.2837-4.5468,5.1162-9.9802,5.257-15.587.118-8.6.177-12.907.3-21.512.0583-2.5792-.1137-5.1584-.514-7.707-.348-2.1639-1.0669-4.2516-2.125-6.171-1.1216-1.9574-2.52-3.7425-4.152-5.3-2.0113-1.933-4.1516-3.7271-6.406-5.37-1.9053-1.3736-3.717-2.8726-5.423-4.487-1.337-1.2756-2.4822-2.7382-3.4-4.342-.8232-1.4586-1.404-3.0412-1.72-4.686-.3252-1.8325-.4569-3.694-.393-5.554.132-5.746.2-8.618.334-14.362.0481-2.3997.7574-4.7396,2.05-6.762,1.1597-1.949,2.8692-3.512,4.914-4.493,1.9673-.9107,3.5453-.9027,4.734.024s1.761,2.6553,1.717,5.186c-.144,8-.216,12.009-.362,20.014,4.567-2.14,6.849-3.219,11.416-5.386.112-8.191.168-12.289.281-20.48"/>
        <path id="Path_223" data-name="Path 223" d="m536.08,380.695c.2679,7.0568-1.6319,14.0264-5.444,19.971-3.7693,5.7747-9.372,10.4576-16.808,14.049-1.8799.9376-3.8359,1.714-5.847,2.321-1.6326.4771-3.3297.6964-5.03.65-1.8126-.086-3.6008-.4541-5.3-1.091-2.2636-.7963-4.484-1.7105-6.652-2.739-1.8499-.8843-3.5858-1.9893-5.17-3.291-1.3438-1.094-2.4761-2.4245-3.341-3.926-.8974-1.6519-1.4742-3.4587-1.7-5.325-.3119-2.3953-.4525-4.8097-.421-7.225.1427-35.48.286-70.9597.43-106.439,6.5-3.123,9.749-4.69,16.249-7.816,3.6,2.227,5.413,3.335,9.047,5.548-.024-3.946-.035-5.919-.059-9.866,6.568-3.149,9.853-4.723,16.423-7.84,4.695,2.751,7.054,4.122,11.793,6.873.6093,35.3827,1.2187,70.7643,1.828,106.145m-53.008,12.084c-.0453,15.2793,6.23,19.8563,18.826,13.731,12.9613-6.2947,19.3614-16.4947,19.2-30.6l-1.2-104.457c-4.5,2.14-6.749,3.216-11.248,5.372.244,34.91.4883,69.8203.733,104.731.0486,6.8-2.4607,11.428-7.528,13.884-2.5334,1.2287-4.3743,1.3257-5.523.291s-1.7247-3.3723-1.728-7.013c-.0474-35.0247-.095-70.05-.143-105.076-4.43,2.131-6.645,3.2-11.075,5.328-.1033,34.604-.2073,69.207-.312,103.809"/>
        <path id="Path_224" data-name="Path 224" d="m603.712,243.386c1.928,42.3393,3.856,84.6777,5.784,127.015-8.836,3.563-13.256,5.416-22.092,9.229-3.254-1.722-4.877-2.578-8.113-4.283.1,3.082.156,4.623.26,7.7-6.427,2.827-9.641,4.271-16.067,7.2-5.457-2.075-8.172-3.1-13.582-5.147l-2.9-128.916c8.989-4.138,13.484-6.174,22.473-10.13,2.5,1.617,3.762,2.427,6.28,4.053l-.228-6.7c6.361-2.758,9.543-4.11,15.9-6.743,4.889,2.659,7.345,4,12.278,6.715m-25.5,1.419c1.1507,32.6893,2.301,65.3787,3.451,98.068-4.5474-31.24-8.9854-62.4953-13.314-93.766-7.475,3.3-11.213,4.991-18.688,8.417.97,41.262,1.9403,82.524,2.911,123.786,4.649-2.153,6.973-3.222,11.623-5.333l-2.852-101.806c4.4047,32.3493,8.9273,64.6827,13.568,97,7.629-3.386,11.444-5.045,19.072-8.268-1.622-40.9047-3.2447-81.81-4.868-122.716-4.361,1.82-6.542,2.746-10.9,4.624"/>
        <path id="Path_225" data-name="Path 225" d="m673.177,220.077c3.1187,41.8127,6.2357,83.6257,9.351,125.439-8.836,2.368-13.256,3.666-22.093,6.455-3.341-2.044-5.007-3.055-8.327-5.06.19,3.039.284,4.559.475,7.6-6.427,2.127-9.641,3.242-16.068,5.559-5.582-2.517-8.359-3.748-13.9-6.169-2.156-42.3393-4.3127-84.6787-6.47-127.018,8.988-3.386,13.482-5,22.473-8.022,2.578,1.832,3.872,2.752,6.467,4.609-.168-2.643-.25-3.963-.416-6.606,6.362-2.06,9.542-3.041,15.9-4.883,5.019,3.185,7.538,4.8,12.6,8.1m-25.753-1.572l6.19,96.735c-5.4553-31.1474-10.8064-62.3117-16.053-93.493-7.475,2.53-11.213,3.866-18.688,6.652,2.116,40.6573,4.2314,81.3153,6.346,121.974,4.649-1.757,6.973-2.614,11.624-4.278-1.894-33.452-3.789-66.9033-5.685-100.354,5.3526,32.2273,10.8193,64.4343,16.4,96.621,7.629-2.583,11.444-3.809,19.073-6.1-2.768-40.3687-5.5347-80.7374-8.3-121.106-4.361,1.286-6.542,1.957-10.9,3.347"/>
        <path id="Path_226" data-name="Path 226" d="m701.383,275.311c-1.292-3.8453-3.612-11.4997-6.96-22.963-4.4487-15.2667-8.933-30.5297-13.453-45.789,6.57-1.582,9.854-2.308,16.423-3.6,4.592,3.557,6.9,5.364,11.528,9.038.369-4.515.553-6.77.918-11.278,6.637-1.077,9.958-1.536,16.593-2.281,5.029,4.258,7.554,6.424,12.629,10.841-2.452,24.1847-5.0386,48.355-7.76,72.511,1.6967,17.644,3.393,35.2873,5.089,52.93-6.5.829-9.75,1.322-16.251,2.449-5.725-3.46-8.576-5.144-14.255-8.43-1.5-17.8073-3-35.615-4.5-53.423m7.019,50.407c4.723-.951,7.083-1.389,11.806-2.188-1.544-17.1246-3.0873-34.2483-4.63-51.371,2.7126-23.618,5.315-47.2477,7.807-70.889-4.431.542-6.645.852-11.075,1.541-1.3174,15.9547-2.6653,31.9053-4.044,47.852-.352.065-.528.1-.882.162-4.0587-14.9733-8.0697-29.96-12.033-44.96-4.361.889-6.542,1.366-10.9,2.38,6.4167,22.0413,12.9363,44.053,19.559,66.035,1.4667,17.1453,2.9307,34.2917,4.392,51.439"/>
        <path id="Path_227" data-name="Path 227" d="m777.099,241.42c.1943,1.7444.5427,3.4681,1.041,5.151.5546,1.7526,1.3405,3.4233,2.337,4.968,1.2673,1.9762,2.6658,3.8651,4.186,5.654,1.707,2.046,3.928,4.461,6.587,7.264,2.96,3.121,5.488,6.062,7.572,8.7,1.9327,2.4104,3.6649,4.9749,5.179,7.668,1.2994,2.3116,2.3461,4.7563,3.122,7.292.7492,2.5586,1.2874,5.1744,1.609,7.821,1.032,8.141,1.548,12.214,2.581,20.355.3819,2.5218.1888,5.0974-.565,7.534-.6884,2.1251-1.9373,4.0251-3.615,5.5-1.7958,1.5344-3.8978,2.6689-6.166,3.328-2.6672.7758-5.4517,1.0684-8.222.864-6.1185-.328-12.0013-2.4684-16.9-6.149-2.917-2.174-5.2-3.85-6.849-5.064s-2.942-2.16-3.863-2.837c-.7727-.5502-1.5077-1.1516-2.2-1.8-.5413-.524-1.2164-1.151-2.025-1.881-1.6393-1.5333-3.0269-3.3151-4.112-5.28-.8676-1.7426-1.4053-3.6307-1.586-5.569l-3.385-32.292c6.776-.4,10.162-.5,16.938-.511,3.737,3.45,5.613,5.2,9.375,8.745-.3223-1.8734-.8322-3.7096-1.522-5.481-.7495-1.8406-1.7254-3.5806-2.905-5.18-1.4711-1.9978-3.0807-3.8898-4.817-5.662-1.943-2.01-4.427-4.365-7.441-7.027-8.3-7.672-12.86-15.707-13.783-24.516l-1.692-16.145c-.3211-2.7992-.053-5.6346.787-8.324.765-2.4937,2.0312-4.8049,3.721-6.792,1.6813-1.9398,3.7621-3.4929,6.1-4.553,2.5472-1.1453,5.3227-1.6926,8.114-1.6,1.8561.0369,3.6951.3625,5.451.965,2.1139.7735,4.116,1.8236,5.954,3.123,2.5328,1.755,4.944,3.6794,7.217,5.76,2.63,2.369,5.713,5.347,9.25,8.967,2.1946,2.1431,4.0391,4.6176,5.466,7.333,1.2126,2.546,1.9936,5.2759,2.311,8.078,1.082,8.533,1.623,12.8,2.705,21.334-6.287-.868-9.429-1.2-15.718-1.685-4.16-3.741-6.233-5.578-10.367-9.189l.132,1.141m7.512-24.586c-.5411-5.0381-2.843-9.7236-6.5-13.231-3.4791-3.5083-8.1984-5.5075-13.139-5.566-4.7361-.1252-9.2803,1.8726-12.39,5.447-3.1073,3.6726-4.5531,8.469-3.993,13.247.684,6.456,1.027,9.685,1.71,16.142.221,2.2301.6622,4.4328,1.317,6.576.6567,2.065,1.5798,4.0356,2.746,5.862,1.3688,2.124,2.9189,4.1254,4.633,5.982,1.879,2.075,4.2,4.443,6.976,6.992,2.589,2.381,4.827,4.568,6.59,6.546,1.6097,1.7803,3.0747,3.6864,4.381,5.7,1.1001,1.7025,1.9972,3.528,2.673,5.439.643,1.8823,1.0789,3.8292,1.3,5.806l2.311,19.871c.3477,1.9083-.0704,3.8769-1.164,5.479-1.1133,1.4051-2.8554,2.1605-4.642,2.013-2.0377-.0167-3.9849-.8444-5.411-2.3-1.554-1.5107-2.5151-3.5284-2.709-5.687-1.176-10.624-1.765-15.937-2.939-26.561-4.64.05-6.96.122-11.6.352,1.264,11.937,1.9,17.9,3.16,29.84.4491,4.4101,2.881,8.376,6.608,10.776,4.2203,2.8176,9.2026,4.2744,14.276,4.174,5.451.071,9.688-1.323,12.695-4.322s4.185-7,3.569-12.1c-.983-8.141-1.476-12.214-2.461-20.357-.3009-2.5789-.8157-5.1284-1.539-7.622-.7345-2.4481-1.7587-4.7998-3.051-7.005-1.4966-2.5305-3.1983-4.9339-5.088-7.186-2.057-2.484-4.556-5.269-7.487-8.262-2.512-2.565-4.637-4.824-6.328-6.8-1.5397-1.7612-2.9299-3.6477-4.156-5.64-1.007-1.636-1.8208-3.3834-2.425-5.207-.5582-1.7757-.9374-3.6028-1.132-5.454-.6-5.41-.9-8.116-1.5-13.526-.3352-1.9497.1338-3.952,1.3-5.55,1.1068-1.4123,2.837-2.1904,4.628-2.081,1.9124.0127,3.7326.8237,5.021,2.237,1.4435,1.5957,2.3187,3.624,2.489,5.769.879,7.559,1.319,11.336,2.2,18.9,4.565.18,6.849.318,11.414.692-.937-7.751-1.405-11.626-2.343-19.379"/>
        <path id="Path_228" data-name="Path 228" d="m806.812,200.715c6.568,1.205,9.853,1.916,16.423,3.585,5.288,5.938,7.944,8.964,13.278,15.153,5.8806,41.2753,11.762,82.5517,17.644,123.829-6.5-1.953-9.75-2.814-16.25-4.318-5.927-5.6-8.879-8.327-14.76-13.637-5.444-41.5373-10.8887-83.0747-16.334-124.612m18.739,122.668c4.723.892,7.083,1.4,11.806,2.515-5.46-39.9333-10.9207-79.8667-16.382-119.8-4.5-1.091-6.748-1.581-11.247-2.45,5.2747,39.9093,10.5486,79.82,15.822,119.732"/>
        <path id="Path_229" data-name="Path 229" d="m867.314,219.987c2.7709,1.2655,5.4355,2.752,7.968,4.445,2.4507,1.6765,4.745,3.5709,6.855,5.66,2.5376,2.5308,4.8987,5.2324,7.067,8.086,2.462,3.1847,5.3383,7.1513,8.629,11.9,2.0972,2.753,3.8558,5.7482,5.238,8.921,1.2224,2.9189,2.101,5.97,2.618,9.092l14.543,86.5c.5184,2.4012.4636,4.8909-.16,7.267-.4624,1.6927-1.5704,3.1365-3.086,4.021-1.7296.8394-3.6899,1.0774-5.57.676-2.7319-.5172-5.3599-1.4815-7.778-2.854-7.6393-4.1422-15.502-7.8585-23.552-11.132-5.562-6.424-8.333-9.563-13.85-15.7-6.152-41.6547-12.3037-83.309-18.455-124.963,7.813,2.864,11.721,4.474,19.534,8.086m23.8,125.027c4.843,2.322,8.368,2.659,10.557.832s2.8-5.66,1.834-11.573c-4.5727-28.0933-9.1453-56.1857-13.718-84.277-1.925-11.828-9.291-21.637-22.095-27.552-6.783-3.133-10.175-4.553-16.958-7.124,5.9547,40.0333,11.9077,80.0667,17.859,120.1,7.6731,2.7954,15.1909,6,22.521,9.6m-28.321-115.621c2.571,1.1,3.857,1.678,6.428,2.864,2.3585,1.259,4.4163,3.0139,6.032,5.144,1.4095,2.1142,2.3126,4.525,2.639,7.045,4.418,27.924,8.8357,55.8487,13.253,83.774.5,3.172.184,5.026-.952,5.584s-3.4.026-6.771-1.492c-2.1-.946-3.148-1.405-5.247-2.3-5.1272-33.5373-10.2545-67.077-15.3819-100.619"/>
        <path id="Path_230" data-name="Path 230" d="m912.773,246.376c10.9723,7.5671,21.4235,15.8631,31.283,24.832,5.528,8.971,8.3,13.546,13.877,22.882,1.055,5.622,1.584,8.433,2.639,14.053-6.01-5.743-9.014-8.474-15.025-13.674,2.165,11.855,3.248,17.783,5.413,29.637,1.344,1.161,2.015,1.747,3.358,2.935,5.632,9.052,8.461,13.669,14.139,23.1,1.055,5.622,1.583,8.433,2.639,14.053-6.144-5.857-9.217-8.642-15.362-13.943,2.227,12.187,3.339,18.28,5.565,30.467,1.375,1.183,2.06,1.782,3.435,2.992,5.738,9.136,8.62,13.8,14.4,23.313,1.055,5.622,1.583,8.433,2.639,14.053-10.1189-9.7559-20.7877-18.9249-31.954-27.462-6.118-8.546-9.166-12.713-15.238-20.848l-21.808-126.39m24.112,125.832c9.5403,6.6864,18.6965,13.9049,27.425,21.621-.731-4-1.1-5.994-1.828-9.991-6.224-5.386-9.335-7.94-15.559-12.782-2.7493-15.4747-5.498-30.95-8.246-46.426,6.11,4.765,9.166,7.278,15.276,12.579-.73-4-1.095-5.994-1.828-9.991-6.085-5.283-9.129-7.787-15.216-12.536-2.6987-15.2-5.3986-30.4-8.1-45.6,5.975,4.674,8.964,7.139,14.941,12.337-.731-4-1.1-6-1.828-9.993-8.3157-7.3922-17.0391-14.3128-26.129-20.729,7.03,40.5027,14.0596,81.0053,21.089,121.508"/>
      </g>
    </g>
  </g>
</svg>